<svg viewBox="0 0 74 43" fill="none" xmlns="http://www.w3.org/2000/svg">
<path d="M0.484961 18.2H2.91496V13.4H7.29496V18.2H9.72496V21.95H7.29496V32H2.91496V21.95H0.484961V18.2ZM11.3857 13.04C11.3857 12.32 11.6357 11.73 12.1357 11.27C12.6557 10.81 13.2857 10.58 14.0257 10.58C14.7657 10.58 15.3857 10.81 15.8857 11.27C16.4057 11.73 16.6657 12.32 16.6657 13.04C16.6657 13.76 16.4057 14.35 15.8857 14.81C15.3857 15.25 14.7657 15.47 14.0257 15.47C13.2857 15.47 12.6557 15.25 12.1357 14.81C11.6357 14.35 11.3857 13.76 11.3857 13.04ZM11.8057 18.2H16.2157V32H11.8057V18.2ZM41.0068 23.12V32H36.4468V23.6C36.4468 22.78 36.3068 22.16 36.0268 21.74C35.7668 21.3 35.3268 21.08 34.7068 21.08C34.1068 21.08 33.6168 21.29 33.2368 21.71C32.8568 22.13 32.6668 22.76 32.6668 23.6V32H28.1068V23.6C28.1068 22.78 27.9668 22.16 27.6868 21.74C27.4268 21.3 26.9868 21.08 26.3668 21.08C25.7668 21.08 25.2768 21.29 24.8968 21.71C24.5168 22.13 24.3268 22.76 24.3268 23.6V32H19.9468V18.2H24.3268V20.24C24.7268 19.48 25.2568 18.9 25.9168 18.5C26.5768 18.08 27.3768 17.87 28.3168 17.87C29.3968 17.87 30.2568 18.06 30.8968 18.44C31.5568 18.82 32.0168 19.39 32.2768 20.15C32.7768 19.43 33.3968 18.87 34.1368 18.47C34.8768 18.07 35.7168 17.87 36.6568 17.87C38.2568 17.87 39.3768 18.33 40.0168 19.25C40.6768 20.17 41.0068 21.46 41.0068 23.12ZM51.6061 32.3C49.9861 32.3 48.5861 32.01 47.4061 31.43C46.2461 30.83 45.3461 29.99 44.7061 28.91C44.0661 27.83 43.7461 26.56 43.7461 25.1C43.7461 22.86 44.4361 21.1 45.8161 19.82C47.1961 18.54 49.0961 17.9 51.5161 17.9C53.8961 17.9 55.7261 18.51 57.0061 19.73C58.3061 20.95 58.9561 22.67 58.9561 24.89C58.9561 25.11 58.9561 25.32 58.9561 25.52C58.9561 25.72 58.9461 25.9 58.9261 26.06H48.3961C48.5161 27 48.8461 27.73 49.3861 28.25C49.9261 28.77 50.6361 29.03 51.5161 29.03C53.1161 29.03 54.2561 28.43 54.9361 27.23L59.0161 28.22C57.5561 30.94 55.0861 32.3 51.6061 32.3ZM51.4261 20.93C49.7861 20.93 48.7961 21.8 48.4561 23.54H54.0961C54.0161 22.74 53.7361 22.11 53.2561 21.65C52.7961 21.17 52.1861 20.93 51.4261 20.93ZM62.5034 26.99C63.5634 27.87 64.4634 28.47 65.2034 28.79C65.9634 29.09 66.5834 29.24 67.0634 29.24C67.9634 29.24 68.4134 28.88 68.4134 28.16C68.4134 27.72 68.2034 27.37 67.7834 27.11C67.3634 26.83 66.5934 26.51 65.4734 26.15C64.8334 25.93 64.2134 25.65 63.6134 25.31C63.0134 24.97 62.5234 24.52 62.1434 23.96C61.7634 23.4 61.5734 22.68 61.5734 21.8C61.5734 20.54 62.0634 19.58 63.0434 18.92C64.0234 18.24 65.2534 17.9 66.7334 17.9C67.9134 17.9 68.9934 18.1 69.9734 18.5C70.9534 18.88 71.8434 19.36 72.6434 19.94L71.0234 22.91C70.4634 22.37 69.8034 21.92 69.0434 21.56C68.3034 21.2 67.6234 21.02 67.0034 21.02C66.6034 21.02 66.2934 21.1 66.0734 21.26C65.8734 21.42 65.7734 21.63 65.7734 21.89C65.7734 22.35 66.0434 22.69 66.5834 22.91C67.1434 23.13 67.9334 23.44 68.9534 23.84C69.6734 24.1 70.3334 24.4 70.9334 24.74C71.5334 25.08 72.0134 25.51 72.3734 26.03C72.7534 26.55 72.9434 27.24 72.9434 28.1C72.9434 29.56 72.4934 30.67 71.5934 31.43C70.6934 32.19 69.4134 32.57 67.7534 32.57C66.2534 32.57 64.9234 32.33 63.7634 31.85C62.6034 31.35 61.5534 30.73 60.6134 29.99L62.5034 26.99Z" fill="black"/>
<circle cx="13.5" cy="12.5" r="2.5" fill="#843ECB"/>
<rect x="44" y="12" width="14" height="3" fill="black"/>
<rect x="43" y="11" width="14" height="3" fill="#843ECB"/>
</svg>
